<svg xmlns="http://www.w3.org/2000/svg" width="640" height="360" viewBox="0 0 640 360" role="img" aria-label="영상 위치 조정 화면 예시">
  <rect width="640" height="360" rx="24" fill="#edf0f5"/>
  <rect x="54" y="42" width="532" height="276" rx="18" fill="#ffffff" stroke="#dfe3ea"/>
  <rect x="390" y="136" width="136" height="108" rx="16" fill="#202124"/>
  <rect x="410" y="154" width="96" height="44" rx="22" fill="#ffffff"/>
  <text x="431" y="182" font-family="-apple-system, BlinkMacSystemFont, 'Apple SD Gothic Neo', sans-serif" font-size="14" font-weight="800" fill="#202124">회의 시간</text>
  <circle cx="458" cy="256" r="26" fill="#f8f2e8" stroke="#202124" stroke-width="6"/>
  <line x1="390" y1="136" x2="526" y2="136" stroke="#3478f6" stroke-width="3"/>
  <line x1="526" y1="136" x2="526" y2="244" stroke="#3478f6" stroke-width="3"/>
  <line x1="526" y1="244" x2="390" y2="244" stroke="#3478f6" stroke-width="3"/>
  <line x1="390" y1="244" x2="390" y2="136" stroke="#3478f6" stroke-width="3"/>
  <circle cx="526" cy="244" r="11" fill="#3478f6"/>
  <rect x="438" y="112" width="42" height="12" rx="6" fill="#8b929e"/>
  <rect x="92" y="78" width="170" height="18" rx="9" fill="#202124"/>
  <rect x="92" y="114" width="242" height="12" rx="6" fill="#c5ccd8"/>
  <rect x="92" y="138" width="208" height="12" rx="6" fill="#c5ccd8"/>
</svg>
